A rip of the Electric City web series created by Tom Hanks originally posted on yahoo to stream only.

I've collected all 20 5-minute episodes and created one movie-length feature. In my opinion it really is too good to not share with anyone.

---Info---
Duration: 01:22:20.61
Video Bitrate: 1257 kb/s
Video: h264 (High) (avc1 / 0x31637661), yuv420p, 1360x768
Audio: mp3 (mp4a / 0x6134706D), 48000 Hz, stereo, s16, 199
----------

Advanced:

Metadata:
major_brand : isom
minor_version : 512
compatible_brands: isomiso2avc1mp41
encoder : Lavf54.22.100
start: 0.000000, bitrate: 1257 kb/s
Stream #0:0(und): Video: h264 (High) (avc1 / 0x31637661), yuv420p, 1360x768
[SAR 256:255 DAR 16:9], 1052 kb/s, 24 fps, 24 tbr, 24 tbn, 48 tbc
Stream #0:1(und): Audio: mp3 (mp4a / 0x6134706D), 48000 Hz, stereo, s16, 199
kb/s